<svg width="512" height="512" viewBox="0 0 512 512" fill="none" xmlns="http://www.w3.org/2000/svg">
  <!-- MintFlow Icon: Square app icon version -->
  <defs>
    <linearGradient id="mintGradientIcon" x1="0%" y1="0%" x2="100%" y2="100%">
      <stop offset="0%" style="stop-color:#2E8B57;stop-opacity:1" />
      <stop offset="50%" style="stop-color:#8BC6A9;stop-opacity:1" />
      <stop offset="100%" style="stop-color:#D4AF37;stop-opacity:1" />
    </linearGradient>
  </defs>
  
  <!-- Background (optional, for app icon) -->
  <rect width="512" height="512" fill="#F4F1EB" rx="100"/>
  
  <!-- Centered mint leaf + wave -->
  <g transform="translate(106, 106)">
    <path d="M150 50 
             C 112.5 50, 87.5 75, 87.5 112.5
             C 87.5 137.5, 100 162.5, 125 175
             C 112.5 187.5, 105 205, 112.5 220
             C 125 237.5, 150 237.5, 162.5 220
             C 170 205, 162.5 187.5, 150 175
             C 175 162.5, 187.5 137.5, 187.5 112.5
             C 187.5 75, 162.5 50, 150 50 Z" 
          fill="url(#mintGradientIcon)"/>
    
    <path d="M 75 187.5 
             Q 100 180, 125 187.5
             T 175 187.5
             Q 200 195, 225 187.5
             L 225 212.5
             Q 200 220, 175 212.5
             T 125 212.5
             Q 100 205, 75 212.5 Z"
          fill="url(#mintGradientIcon)" opacity="0.7"/>
  </g>
</svg>
